<?xml version="1.0" encoding="utf-8"?>
<!-- Generator: Adobe Illustrator 19.2.0, SVG Export Plug-In . SVG Version: 6.00 Build 0)  -->
<svg version="1.1" id="レイヤー_1" xmlns="http://www.w3.org/2000/svg" xmlns:xlink="http://www.w3.org/1999/xlink" x="0px"
	 y="0px" viewBox="0 0 32.3 30.3" style="enable-background:new 0 0 32.3 30.3;" xml:space="preserve">
<style type="text/css">
	.st0{fill:#C43832;}
	.st1{fill:none;stroke:#343332;stroke-width:0.85;stroke-miterlimit:10;}
	.st2{fill:#00AA7E;}
</style>
<g>
	<path class="st0" d="M19.5,21.5H5.2c-0.8,0-1.4-0.6-1.4-1.4V5.8c0-0.8,0.6-1.4,1.4-1.4h14.3c0.8,0,1.4,0.6,1.4,1.4v14.3
		C20.9,20.9,20.3,21.5,19.5,21.5"/>
	<path class="st1" d="M19.5,21.5H5.2c-0.8,0-1.4-0.6-1.4-1.4V5.8c0-0.8,0.6-1.4,1.4-1.4h14.3c0.8,0,1.4,0.6,1.4,1.4v14.3
		C20.9,20.9,20.3,21.5,19.5,21.5z"/>
	<path class="st2" d="M20.9,10.1h-4.3c-0.8,0-1.4-0.6-1.4-1.4V4.3h4.3c0.8,0,1.4,0.6,1.4,1.4V10.1z"/>
	<path class="st1" d="M20.9,10.1h-4.3c-0.8,0-1.4-0.6-1.4-1.4V4.3h4.3c0.8,0,1.4,0.6,1.4,1.4V10.1z"/>
</g>
</svg>
